<?xml version="1.0" encoding="UTF-8" standalone="no"?>
<svg
    xmlns="http://www.w3.org/2000/svg"
    xmlns:xlink="http://www.w3.org/1999/xlink"
    xmlns:inkscape="http://www.inkscape.org/namespaces/inkscape"
    xmlns:sodipodi="http://sodipodi.sourceforge.net/DTD/sodipodi-0.dtd"
    viewBox="20 20 135 220"
    version="1.1"
  >
  <defs
      id="defs4"
    >
    <linearGradient
        id="linearGradient5819"
      >
      <stop
          id="stop5821"
          style="stop-color:#2b1100"
          offset="0"
      />
      <stop
          id="stop5823"
          style="stop-color:#784421"
          offset="1"
      />
    </linearGradient
    >
    <clipPath
        id="clipPath6850"
        clipPathUnits="userSpaceOnUse"
      >
      <path
          id="path6852"
          d="m305.36 320.92c-3.8689 0-7.6767 0.23715-11.43 0.66873-1.4317 11.251-11.794 23.286-26.679 29.758-0.65283 3.4071-0.8506 6.9639-0.50731 10.633l5.5805 59.851c6.413 21.961 13.187 38.458 26.351 50.89 1.8364 1.7343 4.3303 2.6853 6.6846 2.6853 2.3544 0 4.8482-0.95097 6.6847-2.6853 13.164-12.432 19.938-28.929 26.351-50.89l5.5805-59.851c0.34328-3.6688 0.14552-7.2257-0.50731-10.633-14.885-6.4726-25.247-18.508-26.679-29.758-3.7528-0.43158-7.5606-0.66873-11.43-0.66873z"
          sodipodi:nodetypes="sccccaaaccccs"
          style="fill:url(#linearGradient6854)"
          inkscape:connector-curvature="0"
      />
    </clipPath
    >
    <linearGradient
        id="linearGradient6854"
        y2="433.28"
        xlink:href="#linearGradient5819"
        gradientUnits="userSpaceOnUse"
        x2="304.52"
        gradientTransform="matrix(.96408 0 0 1.0616 -14.137 -38.379)"
        y1="433.28"
        x1="352.82"
        inkscape:collect="always"
    />
    <filter
        id="filter4959"
        height="1.5526"
        width="1.684"
        color-interpolation-filters="sRGB"
        y="-.27632"
        x="-.34198"
        inkscape:collect="always"
      >
      <feGaussianBlur
          id="feGaussianBlur4961"
          stdDeviation="5.1216027"
          inkscape:collect="always"
      />
    </filter
    >
    <linearGradient
        id="linearGradient6740"
        y2="432.18"
        gradientUnits="userSpaceOnUse"
        x2="210.35"
        gradientTransform="matrix(1.009 0 0 .95757 -13.943 11.357)"
        y1="432.18"
        x1="249.83"
        inkscape:collect="always"
      >
      <stop
          id="stop5802"
          style="stop-color:#000000"
          offset="0"
      />
      <stop
          id="stop5804"
          style="stop-color:#4d4d4d"
          offset="1"
      />
    </linearGradient
    >
    <linearGradient
        id="linearGradient6742"
        y2="563.49"
        gradientUnits="userSpaceOnUse"
        x2="356.38"
        gradientTransform="translate(.42845)"
        y1="563.49"
        x1="298.26"
        inkscape:collect="always"
      >
      <stop
          id="stop4060"
          style="stop-color:#9f6909"
          offset="0"
      />
      <stop
          id="stop4062"
          style="stop-color:#302005"
          offset="1"
      />
    </linearGradient
    >
    <linearGradient
        id="linearGradient6744"
        y2="554.93"
        gradientUnits="userSpaceOnUse"
        x2="313.17"
        gradientTransform="matrix(1 0 0 .95869 -.12498 22.804)"
        y1="657.16"
        x1="313.17"
        inkscape:collect="always"
      >
      <stop
          id="stop4409"
          style="stop-color:#e3dedb"
          offset="0"
      />
      <stop
          id="stop4415"
          style="stop-color:#ffffff;stop-opacity:0"
          offset=".5"
      />
      <stop
          id="stop4411"
          style="stop-color:#e3dedb"
          offset="1"
      />
    </linearGradient
    >
    <linearGradient
        id="linearGradient6746"
        y2="451.54"
        gradientUnits="userSpaceOnUse"
        x2="75.166"
        gradientTransform="matrix(1 0 0 .95055 -1.6805 16.79)"
        y1="451.54"
        x1="162.22"
        inkscape:collect="always"
      >
      <stop
          id="stop4318"
          style="stop-color:#800000"
          offset="0"
      />
      <stop
          id="stop4324"
          style="stop-color:#aa0000"
          offset="1"
      />
    </linearGradient
    >
    <linearGradient
        id="linearGradient6748"
        y2="433.28"
        xlink:href="#linearGradient5819"
        gradientUnits="userSpaceOnUse"
        x2="304.52"
        gradientTransform="matrix(.96408 0 0 1.0616 -14.137 -38.379)"
        y1="433.28"
        x1="352.82"
        inkscape:collect="always"
    />
    <linearGradient
        id="linearGradient6750"
        y2="556.98"
        gradientUnits="userSpaceOnUse"
        x2="216.37"
        gradientTransform="translate(-76.506 22.828)"
        y1="556.98"
        x1="303.21"
        inkscape:collect="always"
      >
      <stop
          id="stop5453"
          style="stop-color:#0b1728"
          offset="0"
      />
      <stop
          id="stop5455"
          style="stop-color:#535d6c"
          offset="1"
      />
    </linearGradient
    >
    <linearGradient
        id="linearGradient6752"
        y2="595.73"
        gradientUnits="userSpaceOnUse"
        x2="234.82"
        y1="595.73"
        x1="70.177"
        inkscape:collect="always"
      >
      <stop
          id="stop5509"
          style="stop-color:#000000"
          offset="0"
      />
      <stop
          id="stop5515"
          style="stop-color:#000000;stop-opacity:.49804"
          offset=".5"
      />
      <stop
          id="stop5511"
          style="stop-color:#000000"
          offset="1"
      />
    </linearGradient
    >
    <filter
        id="filter8437"
        inkscape:collect="always"
      >
      <feGaussianBlur
          id="feGaussianBlur8439"
          stdDeviation="1.9221555"
          inkscape:collect="always"
      />
    </filter
    >
  </defs
  >
  <g transform="translate(0 -642.36)">
    <g transform="translate(-93.736 367.41)">
      <g
          id="g4839"
          transform="matrix(.90089 0 0 .90805 75.898 6.689)"
        >
        <path
            id="rect3768"
            style="fill:url(#linearGradient6746)"
            inkscape:connector-curvature="0"
            d="m115.98 339.5c-27.2 0-51.745 20.934-49.094 46.666l8 77.766c2.6512 25.732 13.894 46.666 41.094 46.666h1.1562 1.1562c27.2 0 38.443-20.934 41.094-46.666l8-77.766c2.66-25.74-21.88-46.67-49.08-46.67h-1.1562-1.1562z"
        />
        <path
            id="path4814"
            style="opacity:.20192;fill:#ffffff"
            inkscape:connector-curvature="0"
            d="m116.07 343.59c-22.729 0-43.429 16.643-45.203 38.247 13.498-4.3139 29.334-6.7904 46.26-6.7904 16.941 0 32.781 2.5014 46.29 6.822-1.7566-21.62-22.463-38.279-45.203-38.279h-1.0871-1.0569z"
        />
        <path
            id="path4665"
            style="opacity:.091346;fill:#ffffff"
            inkscape:connector-curvature="0"
            d="m100.42 341.81c-2.7742 0.83751-5.4398 1.8788-8 3.125h23.719c0.38843 0 0.72819-0.1448 1-0.375 0.27181 0.2302 0.61157 0.375 1 0.375h23.719c-2.5602-1.2462-5.2258-2.2875-8-3.125h-15.719c-0.38843 0-0.72819 0.14479-1 0.375-0.27181-0.23021-0.61157-0.375-1-0.375h-15.719zm-14.344 6.7812c-1.4678 0.98892-2.8803 2.033-4.2188 3.1562h34.281c0.38843 0 0.72819-0.1448 1-0.375 0.27181 0.2302 0.61157 0.375 1 0.375h34.281c-1.3384-1.1233-2.751-2.1673-4.2188-3.1562h-30.062c-0.38514 0-0.72913 0.14148-1 0.375-0.27087-0.23352-0.61486-0.375-1-0.375h-30.063zm-8.0938 6.8125c-0.9729 1.0215-1.8849 2.0589-2.75 3.1562h40.906c0.38514 0 0.72913-0.14148 1-0.375 0.27087 0.23352 0.61486 0.375 1 0.375h40.906c-0.86509-1.0974-1.7771-2.1348-2.75-3.1562h-38.156c-0.38843 0-0.72819 0.14479-1 0.375-0.27181-0.23021-0.61157-0.375-1-0.375h-38.156zm-5.3125 6.8125c-0.65288 1.0332-1.2576 2.0733-1.8125 3.1562h45.281c0.38514 0 0.72913-0.14148 1-0.375 0.27087 0.23352 0.61486 0.375 1 0.375h45.281c-0.55495-1.0829-1.1596-2.1231-1.8125-3.1562h-43.469c-0.38843 0-0.72819 0.14479-1 0.375-0.27181-0.23021-0.61157-0.375-1-0.375h-43.469zm-3.4375 6.8125c-0.39828 1.0242-0.75465 2.0669-1.0625 3.125h47.969c0.38843 0 0.72819-0.1448 1-0.375 0.27181 0.2302 0.61157 0.375 1 0.375h47.969c-0.30785-1.0581-0.66422-2.1008-1.0625-3.125h-46.906c-0.38843 0-0.72819 0.14479-1 0.375-0.27181-0.23021-0.61157-0.375-1-0.375h-46.906zm-1.9375 6.8125c-0.18882 1.0368-0.37005 2.0635-0.46875 3.125h49.313c0.38843 0 0.72819-0.1448 1-0.375 0.27181 0.2302 0.61157 0.375 1 0.375h49.312c-0.0987-1.0615-0.27993-2.0882-0.46875-3.125h-48.844c-0.38843 0-0.72819 0.14479-1 0.375-0.27181-0.23021-0.61157-0.375-1-0.375h-48.844zm-0.59375 6.7812c0.007 1.0486 0.0572 2.0896 0.15625 3.1562h49.281c0.38843 0 0.72819-0.1448 1-0.375 0.27181 0.2302 0.61157 0.375 1 0.375h49.281c0.099-1.0666 0.1489-2.1076 0.15625-3.1562h-49.438c-0.38514 0-0.72913 0.14148-1 0.375-0.27087-0.23352-0.61486-0.375-1-0.375h-49.438zm0.53125 6.8125 0.3125 3.1562h48.594c0.38514 0 0.72913-0.14148 1-0.375 0.27087 0.23352 0.61486 0.375 1 0.375h48.594l0.3125-3.1562h-48.906c-0.38843 0-0.72819 0.14479-1 0.375-0.27181-0.23021-0.61157-0.375-1-0.375h-48.906zm0.6875 6.8125 0.34375 3.125h47.875c0.38843 0 0.72819-0.1448 1-0.375 0.27181 0.2302 0.61157 0.375 1 0.375h47.875l0.34375-3.125h-48.219c-0.38843 0-0.72819 0.14479-1 0.375-0.27181-0.23021-0.61157-0.375-1-0.375h-48.219zm0.71875 6.8125 0.3125 3.125h47.188c0.38843 0 0.72819-0.1448 1-0.375 0.27181 0.2302 0.61157 0.375 1 0.375h47.188l0.3125-3.125h-47.5c-0.38843 0-0.72819 0.14479-1 0.375-0.27181-0.23021-0.61157-0.375-1-0.375h-47.5zm0.6875 6.7812 0.3125 3.1562h46.5c0.38843 0 0.72819-0.1448 1-0.375 0.27181 0.2302 0.61157 0.375 1 0.375h46.5l0.3125-3.1562h-46.812c-0.38514 0-0.72913 0.14148-1 0.375-0.27087-0.23352-0.61486-0.375-1-0.375h-46.813zm0.6875 6.8125 0.34375 3.1562h45.781c0.38843 0 0.72819-0.1448 1-0.375 0.27181 0.2302 0.61157 0.375 1 0.375h45.781l0.34375-3.1562h-46.125c-0.38514 0-0.72913 0.14148-1 0.375-0.27087-0.23352-0.61486-0.375-1-0.375h-46.125zm0.71875 6.8125 0.3125 3.1562h45.094c0.38514 0 0.72913-0.14148 1-0.375 0.27087 0.23352 0.61486 0.375 1 0.375h45.094l0.3125-3.1562h-45.406c-0.38843 0-0.72819 0.14479-1 0.375-0.27181-0.23021-0.61157-0.375-1-0.375h-45.406zm0.6875 6.8125 0.34375 3.125h44.375c0.38843 0 0.72819-0.1448 1-0.375 0.27181 0.2302 0.61157 0.375 1 0.375h44.375l0.34375-3.125h-44.719c-0.38843 0-0.72819 0.14479-1 0.375-0.27181-0.23021-0.61157-0.375-1-0.375h-44.719zm0.71875 6.8125 0.3125 3.125h43.688c0.38843 0 0.72819-0.1448 1-0.375 0.27181 0.2302 0.61157 0.375 1 0.375h43.688l0.3125-3.125h-44c-0.38843 0-0.72819 0.14479-1 0.375-0.27181-0.23021-0.61157-0.375-1-0.375h-44zm0.6875 6.7812 0.3125 3.1562h43c0.38843 0 0.72819-0.1448 1-0.375 0.27181 0.2302 0.61157 0.375 1 0.375h43l0.3125-3.1562h-43.312c-0.38514 0-0.72913 0.14148-1 0.375-0.27087-0.23352-0.61486-0.375-1-0.375h-43.313zm0.6875 6.8125 0.34375 3.1562h42.281c0.38514 0 0.72913-0.14148 1-0.375 0.27087 0.23352 0.61486 0.375 1 0.375h42.281l0.34375-3.1562h-42.625c-0.38843 0-0.72819 0.14479-1 0.375-0.27181-0.23021-0.61157-0.375-1-0.375h-42.625zm0.71875 6.8125 0.3125 3.125h41.594c0.38843 0 0.72819-0.1448 1-0.375 0.27181 0.2302 0.61157 0.375 1 0.375h41.594l0.3125-3.125h-41.906c-0.38843 0-0.72819 0.14479-1 0.375-0.27181-0.23021-0.61157-0.375-1-0.375h-41.906zm0.6875 6.8125c0.11204 1.0522 0.2335 2.0903 0.375 3.125h40.844c0.38843 0 0.72819-0.1448 1-0.375 0.27181 0.2302 0.61157 0.375 1 0.375h40.844c0.1415-1.0347 0.26296-2.0728 0.375-3.125h-41.219c-0.38843 0-0.72819 0.14479-1 0.375-0.27181-0.23021-0.61157-0.375-1-0.375h-41.219zm0.96875 6.8125c0.18629 1.0564 0.40407 2.0931 0.625 3.125h39.625c0.38843 0 0.72819-0.1448 1-0.375 0.27181 0.2302 0.61157 0.375 1 0.375h39.625c0.22093-1.0319 0.43871-2.0686 0.625-3.125h-40.25c-0.38843 0-0.72819 0.14479-1 0.375-0.27181-0.23021-0.61157-0.375-1-0.375h-40.25zm1.4688 6.7812c0.28071 1.0622 0.58348 2.1281 0.90625 3.1562h37.875c0.38843 0 0.72819-0.1448 1-0.375 0.27181 0.2302 0.61157 0.375 1 0.375h37.875c0.32277-1.0282 0.62554-2.094 0.90625-3.1562h-38.781c-0.38514 0-0.72913 0.14148-1 0.375-0.27087-0.23352-0.61486-0.375-1-0.375h-38.781zm2.1875 6.8125c0.41127 1.0758 0.84705 2.1295 1.3125 3.1562h35.281c0.38514 0 0.72913-0.14148 1-0.375 0.27087 0.23352 0.61486 0.375 1 0.375h35.281c0.46545-1.0267 0.90123-2.0805 1.3125-3.1562h-36.594c-0.38843 0-0.72819 0.14479-1 0.375-0.27181-0.23021-0.61157-0.375-1-0.375h-36.594zm3.1562 6.8125c0.60341 1.0851 1.2597 2.1141 1.9375 3.125h31.5c0.38843 0 0.72819-0.1448 1-0.375 0.27181 0.2302 0.61157 0.375 1 0.375h31.5c0.6778-1.0109 1.3341-2.0399 1.9375-3.125h-33.438c-0.38843 0-0.72819 0.14479-1 0.375-0.27181-0.23021-0.61157-0.375-1-0.375h-33.438zm4.6875 6.8125c0.94878 1.1102 1.962 2.1461 3.0312 3.125h25.719c0.38843 0 0.72819-0.1448 1-0.375 0.27181 0.2302 0.61157 0.375 1 0.375h25.719c1.0693-0.9789 2.0825-2.0148 3.0312-3.125h-28.75c-0.38843 0-0.72819 0.14479-1 0.375-0.27181-0.23021-0.61157-0.375-1-0.375h-28.75zm7.7812 6.7812c2.0141 1.2663 4.1981 2.3089 6.5625 3.1562h14.406c0.38843 0 0.72819-0.1448 1-0.375 0.27181 0.2302 0.61157 0.375 1 0.375h14.406c2.3644-0.84731 4.5484-1.89 6.5625-3.1562h-20.969c-0.38514 0-0.72913 0.14148-1 0.375-0.27087-0.23352-0.61486-0.375-1-0.375h-20.969z"
        />
        <rect
            id="rect4808"
            style="opacity:.21154;fill:#ffffff"
            rx="14.722"
            ry="7.3139"
            height="88.844"
            width="31.499"
            y="413.9"
            x="101.39"
        />
        <path
            id="path4391"
            style="fill:#ffffff"
            inkscape:connector-curvature="0"
            d="m89.733 401.56c-0.35419-0.00089-0.71869 0.0163-1.0625 0.0312-1.5717 0.0683-3.005 0.31455-4.2812 0.78125-6.9564 2.5439-6.8029 13.234-13.25 17.469-0.22574 0.14829-0.47596 0.2992-0.75 0.4375l1.1875 11.562c0.0052 0.032 0.02531 0.0621 0.03125 0.0937 0.30501 1.6258 1.6101 2.875 3.2188 2.875 1.7409 0 3.173-1.4539 3.3125-3.2812l3.375-0.125c0.04472 4.062 1.958 7.3125 4.3125 7.3125 2.3825 0 4.3125-3.3392 4.3125-7.4688 0-0.0874 0.0018-0.16333 0-0.25l3.4062-0.125c-0.01424 0.13359-0.03125 0.23745-0.03125 0.375 0 1.9664 1.511 3.5625 3.3438 3.5625 1.8327 0 3.3125-1.5961 3.3125-3.5625 0-0.23603-0.0214-0.46405-0.0625-0.6875-0.002-0.009 0.002-0.022 0-0.0312l2.8125-0.0937c-0.0606 0.26893-0.125 0.52405-0.125 0.8125 0 1.9664 1.511 3.5625 3.3438 3.5625 1.8327 0 3.3125-1.5961 3.3125-3.5625 0-0.39633-0.0755-0.73701-0.1875-1.0938l3.16-0.15 3.9375-20.781s-15.645-7.6167-26.625-7.6562zm54.625 0.0312c-10.97 0.1082-26.469 7.625-26.469 7.625l3.9375 20.781 3.1875 0.15625c-0.11198 0.35673-0.1875 0.69743-0.1875 1.0938 0 1.9664 1.4798 3.5625 3.3125 3.5625s3.3438-1.5961 3.3438-3.5625c0-0.28844-0.0644-0.54357-0.125-0.8125l2.8125 0.125c-0.0411 0.22345-0.0625 0.45147-0.0625 0.6875 0 1.9664 1.4798 3.5625 3.3125 3.5625s3.3438-1.5961 3.3438-3.5625c0-0.13755-0.017-0.24141-0.0312-0.375l3.4062 0.125c-0.002 0.0867 0 0.16263 0 0.25 0 4.1295 1.93 7.4688 4.3125 7.4688 2.3545 0 4.2678-3.2505 4.3125-7.3125l3.375 0.125c0.1395 1.8274 1.5716 3.2812 3.3125 3.2812 1.6087 0 2.9137-1.2492 3.2188-2.875l0.0312-0.0937 1.1875-11.562c-0.2741-0.13823-0.52414-0.28934-0.75-0.4375-6.4559-4.235-6.3248-14.925-13.281-17.469-1.5953-0.58338-3.4684-0.80128-5.5-0.78125zm-27.219 22.188c-2.3825 0-4.3125 3.3393-4.3125 7.4688s1.93 7.4688 4.3125 7.4688 4.3125-3.3392 4.3125-7.4688c0-4.1295-1.93-7.4688-4.3125-7.4688z"
        />
        <path
            id="path4362"
            style="fill:#000000"
            inkscape:connector-curvature="0"
            d="m94.171 406.53c-1.2693 0.0567-2.4381 0.26935-3.4688 0.65625-5.6182 2.1089-5.5291 11.412-10.688 14.469-2.2448 1.3301-5.8238 1.9646-9.25 2.2812l0.59375 5.5625 42-1.5625 3.1562-15.094s-13.458-6.7093-22.344-6.3125zm44.25 0c-8.7999 0.41017-20.625 6.3125-20.625 6.3125l3.1562 15.094 41.969 1.5625 0.59375-5.5625c-3.4262-0.31669-6.974-0.95114-9.2188-2.2812-5.1584-3.0565-5.0693-12.36-10.688-14.469-1.0307-0.3869-2.1994-0.59955-3.4688-0.65625-0.55534-0.0248-1.1321-0.0273-1.7188 0z"
        />
        <path
            id="path4425"
            style="fill:#ffffff"
            inkscape:connector-curvature="0"
            d="m98.08 413.36c-0.98807 0.007-1.8784 0.0917-2.6956 0.21403-6.4827 0.97012-7.4879 3.3013-10.624 11.023l21.12-0.9899 3.3932-7.5982c-4.4889-2.0435-8.2303-2.6694-11.194-2.6486zm38.087 0c-2.9642-0.0207-6.6739 0.60514-11.163 2.6486l3.3932 7.5982 21.12 0.9899c-3.1357-7.7214-4.141-10.053-10.624-11.023-0.8172-0.12229-1.7392-0.20713-2.7273-0.21403z"
        />
        <g
            id="g4810"
            transform="translate(-2.5e-6,0)"
          >
          <path
              id="path4564"
              d="m73.39 449.22 0.5625 5.5938c5.5773 4.9231 12.267 9.6361 19.812 13.812-0.16958 0.66652-0.28796 1.348-0.3125 2.0625-0.0094 0.25615 0.02292 0.52452 0.03125 0.78125-7.3668-4.2281-13.861-8.9607-19.25-13.875l0.5625 5.4375c5.5674 4.7434 12.168 9.2538 19.562 13.25 0.02738 0.0822 0.03489 0.16621 0.0625 0.25 0.15902 0.48243 0.34114 0.95618 0.53125 1.4375 0.0039 0.01-0.0039 0.0215 0 0.0312 0.19214 0.48503 0.40586 0.98864 0.625 1.4688 0.10802 0.2366 0.22991 0.45275 0.34375 0.6875 0.12066 0.24917 0.24842 0.50344 0.375 0.75-0.20135 1.2571-0.2296 2.4983-0.0625 3.6562-4.2788 3.132-8.1782 6.5203-11.625 10.062 0.63505 0.94928 1.2973 1.8709 2 2.75 3.2667-3.2998 6.9139-6.4673 10.906-9.4062 0.23766 0.34623 0.49983 0.68211 0.8125 1 0.20797 0.21095 0.41513 0.43005 0.65625 0.625 0.007 0.005 0.02515-0.005 0.03125 0 0.0726 0.0583 0.16851 0.10265 0.25 0.15625-4.1373 2.8191-7.9609 5.8945-11.406 9.125 0.76732 0.86385 1.563 1.6878 2.4062 2.4688 3.3433-3.0533 7.0006-5.9878 10.969-8.6562 0.58198-0.39134 1.1618-0.77564 1.75-1.1562 0.31765 0.0932 0.65561 0.20272 1 0.28125 0.26712 0.0608 0.51792 0.10274 0.78125 0.125 0.24441 0.0197 0.49796 0.0191 0.75 0 0.0105-0.00083 0.0208 0.00091 0.0312 0 0.0214-0.001 0.0412 0.001 0.0625 0 0.24247-0.0228 0.50788-0.0744 0.75-0.125 0.21022-0.0438 0.41478-0.0946 0.625-0.15625 0.0542-0.0156 0.10237-0.0143 0.15625-0.0312 0.25165-0.0772 0.47237-0.19003 0.71875-0.28125 0.009-0.005 0.0222 0.005 0.0312 0 0.25633-0.0956 0.5491-0.19317 0.8125-0.3125 0.11988-0.0543 0.22151-0.12811 0.34375-0.1875 0.3974-0.18984 0.817-0.41884 1.2188-0.625 2.1427-1.0995 4.394-2.3125 6.9062-2.3125 0.62805 0 1.2188 0.0552 1.8125 0.1875 0.0105 0.004 0.0209-0.004 0.0312 0 0.58305 0.13179 1.1616 0.31278 1.7188 0.53125 0.009 0.005 0.0218-0.005 0.0312 0 0.55722 0.21974 1.1177 0.48464 1.6562 0.75 0.009 0.005 0.0225-0.005 0.0312 0 0.53854 0.26588 1.0354 0.57328 1.5625 0.84375 0.009 0.005 0.023-0.005 0.0312 0 0.39679 0.20387 0.78988 0.43149 1.1875 0.625 0.0226 0.01 0.0714 0.0202 0.0937 0.0312 0.10894 0.0526 0.20545 0.10755 0.3125 0.15625 0.26339 0.1194 0.49366 0.21689 0.75 0.3125 0.009 0.005 0.0224-0.005 0.0312 0 0.24672 0.0913 0.52928 0.20401 0.78125 0.28125 0.0436 0.0139 0.0812 0.0181 0.125 0.0312 0.21779 0.0646 0.43847 0.11088 0.65625 0.15625 0.24212 0.0505 0.47629 0.10236 0.71875 0.125 0.0325 0.004 0.0615-0.004 0.0937 0 0.515 0.0357 1.0394-0.006 1.5625-0.125 0.3202-0.073 0.64116-0.16456 0.9375-0.25 0.007 0.005 0.0241-0.005 0.0312 0 0.57156 0.37576 1.1446 0.73893 1.7188 1.125 3.9682 2.6684 7.6255 5.6029 10.969 8.6562 0.84321-0.78094 1.6389-1.6049 2.4062-2.4688-3.4391-3.2277-7.2441-6.3089-11.375-9.125 0.0804-0.0607 0.17316-0.094 0.25-0.15625 0.23478-0.18984 0.48415-0.41995 0.6875-0.625 0.21428-0.21608 0.41295-0.42452 0.59375-0.65625 0.0837-0.10721 0.13913-0.23029 0.21875-0.34375 3.9835 2.9339 7.6158 6.1117 10.875 9.4062 0.71162-0.89026 1.389-1.8191 2.0312-2.7812-3.4365-3.531-7.3292-6.9087-11.594-10.031 0.12025-0.86688 0.11993-1.7873 0.0312-2.7188-0.00093-0.01 0.00093-0.0206 0-0.0312-0.0295-0.30236-0.0447-0.59957-0.0937-0.90625 0.24038-0.46816 0.43784-0.92956 0.65625-1.4062 0.007-0.0139 0.0252-0.0179 0.0312-0.0312 0.12594-0.27576 0.25766-0.56611 0.375-0.84375 0.16247-0.3848 0.32474-0.76944 0.46875-1.1562 0.11632-0.31231 0.20942-0.62502 0.3125-0.9375 0.0312-0.0947 0.0643-0.18691 0.0937-0.28125 7.3698-3.9881 13.948-8.4882 19.5-13.219l0.5625-5.4062c-5.3667 4.905-11.846 9.6257-19.188 13.844 0.0322-0.99792-0.0848-1.9603-0.3125-2.875 7.5453-4.182 14.208-8.9156 19.781-13.844l0.5625-5.5312c-5.9805 5.6966-13.438 11.203-22.062 16-0.0239-0.0284-0.0371-0.0654-0.0625-0.0937-0.46073-0.51492-0.98925-0.97259-1.625-1.4062-0.007-0.005-0.0551 0.005-0.0625 0-0.42279-0.28676-0.86951-0.56617-1.375-0.8125-0.009-0.005-0.0226 0.005-0.0312 0-0.5074-0.24579-1.0614-0.48601-1.6562-0.6875-0.009-0.004-0.0217 0.004-0.0312 0-0.60622-0.20406-1.236-0.37691-1.9375-0.53125-0.30084-0.0662-0.60405-0.16298-0.90625-0.1875-0.3022-0.0245-0.61-0.0219-0.90625 0-0.0214 0.001-0.0412-0.001-0.0625 0-0.27775 0.0245-0.56793 0.10109-0.84375 0.15625-0.1753 0.035-0.35637 0.0791-0.53125 0.125-0.11289 0.0306-0.19822 0.0598-0.3125 0.0937-0.29483 0.0872-0.60873 0.17383-0.90625 0.28125-0.29749 0.10746-0.57838 0.2453-0.875 0.375-0.13081 0.057-0.27346 0.1281-0.40625 0.1875-0.46945 0.20986-0.93598 0.39215-1.4062 0.625-1.4991 0.74227-3.0386 1.5899-4.6562 2.0938-0.32519 0.10118-0.66668 0.17607-1 0.25-0.0105 0.004-0.0208-0.004-0.0312 0-0.66782 0.14605-1.3239 0.21875-2.0312 0.21875-1.05 0-2.0521-0.17221-3.0312-0.46875-0.009-0.004-0.0217 0.004-0.0312 0-0.31992-0.0977-0.65528-0.25684-0.96875-0.375-0.009-0.005-0.022 0.005-0.0312 0-1.2645-0.48775-2.4586-1.1257-3.6562-1.7188-0.47028-0.23285-0.96806-0.41514-1.4375-0.625-0.13276-0.0593-0.24418-0.13036-0.375-0.1875-0.29666-0.12971-0.60874-0.26758-0.90625-0.375-0.009-0.005-0.0213 0.005-0.0312 0-0.28761-0.1087-0.55641-0.19566-0.84375-0.28125-0.15941-0.0471-0.31176-0.0841-0.46875-0.125-0.13192-0.0327-0.27403-0.0673-0.40625-0.0937-0.27581-0.0552-0.53473-0.13177-0.8125-0.15625-0.0221-0.001-0.0403 0.001-0.0625 0-0.0105-0.00076-0.0207 0.00075-0.0312 0-0.29624-0.0219-0.61015-0.0292-0.90625 0-0.29609 0.0294-0.57415 0.12139-0.875 0.1875-2.8105 0.61842-4.8538 1.6473-6.25 2.9688-0.17465 0.16483-0.34466 0.29513-0.5 0.46875-0.02536 0.0283-0.03768 0.0654-0.0625 0.0937-8.6301-4.7973-16.102-10.304-22.094-16z"
              style="fill:#ffffff"
              inkscape:connector-curvature="0"
          />
          <path
              id="path4459"
              style="fill:#000000"
              inkscape:connector-curvature="0"
              d="m107.25 465.96c-0.20963 0.0197-0.41763 0.0641-0.63061 0.10841-1.9898 0.41461-3.4259 1.1082-4.4143 1.9942-0.12365 0.11051-0.24037 0.20874-0.35034 0.32513-0.55511 0.58608-0.92794 1.2405-1.1678 1.9508-0.19064 0.56449-0.30453 1.1583-0.32699 1.7774-0.012 0.30899-0.00086 0.61329 0.0233 0.93204 0.00057 0.007-0.00059 0.0145 0 0.0218 0.025 0.31196 0.0832 0.635 0.14014 0.95371 0.0597 0.33337 0.11903 0.65904 0.2102 0.99709 0.0906 0.33893 0.20836 0.65619 0.32698 0.99708 0.11259 0.32344 0.23911 0.65268 0.37371 0.97538 0.003 0.007-0.003 0.0152 0 0.0218 0.13603 0.32518 0.28862 0.65351 0.44376 0.97541 0.0765 0.15862 0.15297 0.31947 0.23356 0.47685 0.0854 0.16705 0.16731 0.33324 0.25693 0.49854-0.20866 1.2337-0.16763 2.4306 0.2102 3.4898 0.10569 0.29626 0.23515 0.57121 0.39705 0.84533 0.031 0.0526 0.0602 0.10014 0.0934 0.15173 0.20712 0.32638 0.44934 0.6234 0.74739 0.91038 0.14724 0.14144 0.29644 0.28113 0.46714 0.41182 0.006 0.004 0.0189-0.004 0.0233 0 0.0711 0.0541 0.15829 0.0996 0.23357 0.15175 0.28477 0.19877 0.58661 0.39488 0.93424 0.56355 0.65895 0.3197 1.4307 0.58491 2.3356 0.78031 0.18912 0.0408 0.37412 0.0718 0.56055 0.0867 0.17303 0.0132 0.35875 0.0128 0.53719 0 0.007-0.00056 0.0158 0.00061 0.0233 0 0.0151-0.00089 0.0316 0.00088 0.0467 0 0.17165-0.0152 0.34242-0.0528 0.51384-0.0867 0.14882-0.0294 0.29492-0.067 0.44376-0.10841 0.0383-0.0105 0.0786-0.0105 0.11677-0.0218 0.17816-0.0517 0.33941-0.11225 0.51385-0.1734 0.007-0.004 0.0169 0.004 0.0233 0 0.18148-0.0641 0.37407-0.13676 0.56055-0.21677 0.0849-0.0364 0.17037-0.0902 0.25691-0.13005 0.28135-0.12727 0.57976-0.27361 0.86418-0.41183 1.5169-0.73714 3.1029-1.5606 4.8814-1.5606 0.44464 0 0.86428 0.0414 1.2846 0.13003 0.007 0.002 0.016-0.002 0.0233 0 0.41278 0.0883 0.82006 0.22201 1.2145 0.36848 0.007 0.004 0.0166-0.004 0.0233 0 0.39449 0.14733 0.78652 0.32064 1.1678 0.49855 0.007 0.004 0.017-0.004 0.0233 0 0.38126 0.17825 0.74792 0.38222 1.1211 0.56356 0.007 0.004 0.0174-0.004 0.0233 0 0.28091 0.13667 0.55933 0.2821 0.84083 0.41183 0.0159 0.007 0.0309 0.0145 0.0467 0.0218 0.0771 0.0352 0.15778 0.0758 0.23357 0.10842 0.18647 0.0801 0.35571 0.15267 0.53719 0.21677 0.007 0.004 0.0169-0.004 0.0233 0 0.17466 0.0612 0.35882 0.12162 0.53721 0.17341 0.0309 0.009 0.0624 0.0131 0.0934 0.0218 0.15417 0.0434 0.31293 0.0779 0.46711 0.10841 0.17141 0.0338 0.34218 0.0716 0.51384 0.0867 0.0229 0.002 0.0471-0.002 0.07 0 0.3646 0.0239 0.72739-0.007 1.0977-0.0867 0.90677-0.19581 1.6743-0.45967 2.3356-0.78031 0.43932-0.21315 0.82808-0.45471 1.1678-0.71532 0.16622-0.12726 0.32317-0.27435 0.46713-0.41182 0.1517-0.14487 0.29241-0.27817 0.42041-0.43352 0.12473-0.15138 0.24715-0.31631 0.35034-0.47686 0.71868-1.1181 0.91255-2.4472 0.77076-3.8582-0.00073-0.007 0.00074-0.0147 0-0.0218-0.0209-0.20272-0.0353-0.4013-0.07-0.60691 0.17018-0.31386 0.3125-0.63413 0.46713-0.95372 0.005-0.009 0.0191-0.0128 0.0234-0.0218 0.0891-0.18488 0.17383-0.37742 0.25691-0.56356 0.11502-0.25798 0.22505-0.52099 0.327-0.78032 0.0823-0.20938 0.16058-0.41906 0.23355-0.62857 0.21391-0.61468 0.3725-1.216 0.49048-1.8208 0.29809-1.528 0.27646-2.9925-0.28027-4.2701-0.17772-0.41064-0.41105-0.80393-0.70069-1.1705-0.0998-0.12626-0.18967-0.24817-0.30362-0.36849-0.32618-0.34522-0.71773-0.66297-1.1678-0.95371-0.006-0.004-0.0181 0.004-0.0233 0-0.29932-0.19225-0.62309-0.37674-0.98096-0.54189-0.007-0.004-0.0172 0.004-0.0233 0-0.35921-0.16479-0.74669-0.3201-1.1678-0.45519-0.007-0.002-0.0166 0.002-0.0233 0-0.42918-0.1368-0.88143-0.265-1.378-0.36847-0.21299-0.0444-0.41666-0.0919-0.63061-0.10841-0.21395-0.0165-0.44425-0.0147-0.65397 0-0.0152 0.00088-0.0316-0.00088-0.0467 0-0.19663 0.0165-0.38864 0.0498-0.58391 0.0867-0.12411 0.0234-0.24987 0.056-0.37369 0.0867-0.0799 0.0206-0.15265 0.0423-0.23357 0.0651-0.20872 0.0584-0.41998 0.12307-0.63062 0.19507-0.21061 0.0721-0.4206 0.1515-0.6306 0.23845-0.0926 0.0383-0.18627 0.0903-0.28028 0.13004-0.33236 0.14071-0.67139 0.27741-1.0043 0.43352-1.0613 0.49764-2.148 1.0494-3.2932 1.3872-0.23021 0.0679-0.4647 0.12385-0.70068 0.17342-0.007 0.002-0.0159-0.002-0.0233 0-0.4728 0.0979-0.94731 0.15173-1.4481 0.15173-0.74336 0-1.4556-0.12633-2.1488-0.32515-0.007-0.002-0.0166 0.002-0.0233 0-0.22649-0.0655-0.4554-0.1592-0.67732-0.23842-0.007-0.004-0.0167 0.004-0.0233 0-0.89522-0.32701-1.7446-0.75122-2.5925-1.1488-0.33294-0.15611-0.67197-0.29281-1.0043-0.43352-0.094-0.0398-0.18765-0.0918-0.28027-0.13004-0.21002-0.0869-0.41999-0.16642-0.63062-0.23845-0.007-0.004-0.0163 0.004-0.0233 0-0.20361-0.0728-0.40383-0.13768-0.60726-0.19507-0.11286-0.0316-0.21585-0.0594-0.32698-0.0867-0.0934-0.0219-0.18667-0.0473-0.28028-0.065-0.19526-0.0369-0.38726-0.0703-0.58391-0.0867-0.0157-0.00088-0.031 0.00088-0.0467 0-0.007-0.00052-0.0158 0.0005-0.0233 0-0.20973-0.0147-0.42099-0.0196-0.63062 0z"
          />
        </g
        >
        <g
            id="g4707"
            transform="translate(-2.423 -1.9534)"
          >
          <g
              id="g4684"
              style="fill:#ffffff"
              transform="matrix(.97560 0 0 1.1073 -2.1228 -152.11)"
            >
            <path
                id="path4686"
                d="m124.73 492.98-11.536 47.566s7.2362 9.574 11.536 9.574c4.3003 0 11.537-9.574 11.537-9.574z"
                sodipodi:nodetypes="ccscc"
                style="fill:#ffffff"
                inkscape:connector-curvature="0"
            />
          </g
          >
          <g
              id="g4386"
              transform="matrix(.90970 0 0 1.0468 6.0965 -124.54)"
            >
            <path
                id="path4383"
                sodipodi:nodetypes="ccscc"
                style="fill:#aa0000"
                inkscape:connector-curvature="0"
                d="m124.73 492.98-13 52.094s8.1542 8.625 13 8.625 13-8.625 13-8.625z"
            />
            <path
                id="path4379"
                style="fill:#800000"
                inkscape:connector-curvature="0"
                d="m124.73 492.98v60.719c4.8458 0 13-8.625 13-8.625l-13-52.094z"
            />
          </g
          >
          <path
              id="path4690"
              style="opacity:.088496;fill:#ffffff"
              inkscape:connector-curvature="0"
              d="m119.56 391.5-0.1875 0.8125c0.0569-0.0376 0.13572-0.0491 0.1875-0.0937 0.0518 0.0446 0.13059 0.0562 0.1875 0.0937l-0.18-0.81zm-1.0312 4.75-0.6875 3.125h0.71875c0.38843 0 0.72819-0.1448 1-0.375 0.27181 0.2302 0.61157 0.375 1 0.375h0.71875l-0.6875-3.125h-0.0312c-0.38843 0-0.72819 0.14479-1 0.375-0.27181-0.23021-0.61157-0.375-1-0.375h-0.0312zm-1.4688 6.8125-0.6875 3.125h2.1875c0.38843 0 0.72819-0.1448 1-0.375 0.27181 0.2302 0.61157 0.375 1 0.375h2.1875l-0.6875-3.125h-1.5c-0.38843 0-0.72819 0.14479-1 0.375-0.27181-0.23021-0.61157-0.375-1-0.375h-1.5zm-1.4688 6.7812-0.6875 3.1562h3.6562c0.38843 0 0.72819-0.1448 1-0.375 0.27181 0.2302 0.61157 0.375 1 0.375h3.6562l-0.6875-3.1562h-2.9688c-0.38514 0-0.72913 0.14148-1 0.375-0.27087-0.23352-0.61486-0.375-1-0.375h-2.9688zm-1.4688 6.8125-0.6875 3.1562h5.125c0.38843 0 0.72819-0.1448 1-0.375 0.27181 0.2302 0.61157 0.375 1 0.375h5.125l-0.6875-3.1562h-4.4375c-0.38514 0-0.72913 0.14148-1 0.375-0.27087-0.23352-0.61486-0.375-1-0.375h-4.4375zm-1.5 6.8125-0.65625 3.1562h6.5938c0.38514 0 0.72913-0.14148 1-0.375 0.27087 0.23352 0.61486 0.375 1 0.375h6.5938l-0.65625-3.1562h-5.9375c-0.38843 0-0.72819 0.14479-1 0.375-0.27181-0.23021-0.61157-0.375-1-0.375h-5.9375zm-1.4688 6.8125-0.65625 3.125h8.0625c0.38843 0 0.72819-0.1448 1-0.375 0.27181 0.2302 0.61157 0.375 1 0.375h8.0625l-0.65625-3.125h-7.4062c-0.38843 0-0.72819 0.14479-1 0.375-0.27181-0.23021-0.61157-0.375-1-0.375h-7.4062zm-1.4688 6.8125-0.6875 3.125h9.5625c0.38843 0 0.72819-0.1448 1-0.375 0.27181 0.2302 0.61157 0.375 1 0.375h9.5625l-0.6875-3.125h-8.875c-0.38843 0-0.72819 0.14479-1 0.375-0.27181-0.23021-0.61157-0.375-1-0.375h-8.875zm-1.4688 6.7812-0.46875 2.1562s0.46156 0.52732 0.875 1h9.9375c0.38843 0 0.72819-0.1448 1-0.375 0.27181 0.2302 0.61157 0.375 1 0.375h9.9375c0.41344-0.47268 0.875-1 0.875-1l-0.46875-2.1562h-10.344c-0.38514 0-0.72913 0.14148-1 0.375-0.27087-0.23352-0.61486-0.375-1-0.375h-10.344zm3.9688 6.8125c1.2602 1.1691 2.6423 2.3309 4 3.1562h2.375c0.38514 0 0.72913-0.14148 1-0.375 0.27087 0.23352 0.61486 0.375 1 0.375h2.375c1.3577-0.82532 2.7398-1.9872 4-3.1562h-6.375c-0.38843 0-0.72819 0.14479-1 0.375-0.27181-0.23021-0.61157-0.375-1-0.375h-6.375z"
          />
        </g
        >
        <path
            id="path4504"
            d="m71.788 323.38c-7.6214 0.12287-15.097 9.514-19.415 16.267-2.5012 3.9118-2.9831 4.8475-4.6101 7.7839 1.9132-2.1182 3.1398-3.4042 6.4091-6.6719 3.7001-3.6982 10.402-8.1169 15.105-7.0532 11.867 2.6846 5.9206 30.502 14.43 37.906 3.4761 3.0245 10.125 5.6357 15.854 7.498-0.01915 0.2858-0.03743 0.56793-0.03743 0.85782 0 8.2473 7.8864 14.932 17.616 14.932 9.7293 0 17.616-6.6851 17.616-14.932 0-0.28989-0.0183-0.57202-0.0374-0.85782 5.7291-1.8623 12.378-4.4735 15.854-7.498 8.5093-7.4038 2.563-35.221 14.43-37.906 4.7022-1.0637 11.442 3.355 15.142 7.0532 3.2693 3.2677 4.4584 4.5537 6.3716 6.6719-1.627-2.9364-2.1089-3.8721-4.6101-7.7839-4.3176-6.7527-11.793-16.144-19.415-16.267-0.34119-0.005-0.63515 0.0265-0.97449 0.0636-13.004 1.4191-9.0364 31.938-19.415 38.764-3.7689 2.4787-10.425 3.9735-16.116 4.861-2.5999-1.2824-5.6205-2.0334-8.8453-2.0334s-6.2454 0.75092-8.8453 2.0334c-5.6984-0.88784-12.351-2.3847-16.116-4.861-10.378-6.8255-6.3736-37.345-19.377-38.764-0.33935-0.0369-0.67078-0.0691-1.012-0.0636z"
            sodipodi:nodetypes="cscssscssscssscsccscscsccc"
            style="fill:#000000"
            inkscape:connector-curvature="0"
        />
        <path
            id="path4518"
            style="fill:#ffffff"
            inkscape:connector-curvature="0"
            d="m113.42 339.56c-1.1821 0.0573-2.3644 0.17834-3.5312 0.3125-0.61557 4.7297-0.47589 9.9607 0.59375 15.281 0.53154 2.644 1.2424 5.1404 2.125 7.4688-0.69938 0.17871-1.3668 0.39936-2.0312 0.65625-1.0584-2.1962-1.9694-4.5311-2.7188-7.0312-1.6259-5.4245-2.213-10.827-1.9375-15.812-1.3771 0.26311-2.7208 0.60309-4.0625 0.96875-0.14686 4.717 0.47923 9.7699 2 14.844 0.93328 3.1138 2.1209 5.998 3.5312 8.625-5.1052 3.2355-8.5 8.9154-8.5 15.406 0 0.0314-0.00016 0.0625 0 0.0937-12.766 1.0961-23.841 3.3155-31.938 6.25l0.375 3.9062c8.1713-2.8883 19.295-5.0341 32.062-6.0938 0.18504 0.79465 0.40239 1.5615 0.68749 2.3125-12.87 0.99123-24.12 3.0784-32.531 5.875l0.40625 3.9375c8.8208-2.8744 20.703-4.9724 34.219-5.875 3.2966 4.7389 8.759 7.8438 14.969 7.8438 6.2098 0 11.672-3.1048 14.969-7.8438 13.516 0.90259 25.398 3.0006 34.219 5.875l0.40625-3.9375c-8.4109-2.7966-19.661-4.8838-32.531-5.875 0.28511-0.75102 0.50246-1.5178 0.6875-2.3125 12.763 1.0592 23.892 3.207 32.062 6.0938l0.1875-1.8125 0.1875-2.0938c-8.0968-2.9345-19.172-5.1539-31.938-6.25 0.00016-0.0314 0-0.0623 0-0.0937 0-6.5059-3.4062-12.206-8.5312-15.438 1.4159-2.6228 2.6624-5.4863 3.5938-8.5938 1.5208-5.0738 2.1469-10.127 2-14.844-1.3415-0.3664-2.6856-0.70487-4.0625-0.96875 0.27676 4.985-0.31267 10.392-1.9375 15.812-0.74587 2.4885-1.7183 4.8104-2.7812 7-0.66185-0.25418-1.3349-0.4483-2.0312-0.625 0.89404-2.332 1.655-4.8199 2.1875-7.4688 1.0696-5.3206 1.2093-10.552 0.59375-15.281-1.177-0.13602-2.37-0.25473-3.5625-0.3125 0.71303 4.908 0.61824 10.375-0.5 15.938-0.46835 2.3297-1.1234 4.5191-1.875 6.5938-0.44314-0.0322-0.89239-0.0625-1.3438-0.0625-0.46183 0-0.92178 0.0288-1.375 0.0625-0.74195-2.0746-1.3451-4.2688-1.8125-6.5938-1.1186-5.5642-1.2389-11.025-0.53125-15.938zm3.7188 27.031c7.5425 0 13.656 6.145 13.656 13.688 0 7.5425-6.1138 13.656-13.656 13.656-7.5425 0-13.656-6.1138-13.656-13.656 0-7.5425 6.1138-13.688 13.656-13.688z"
        />
      </g
      >
    </g>
  </g>
</svg>
